<svg width="55" height="54" viewBox="0 0 55 54" fill="none" xmlns="http://www.w3.org/2000/svg">
<g filter="url(#filter0_d_269_76)">
<circle cx="25.5" cy="23" r="17" fill="white"/>
<g clip-path="url(#clip0_269_76)">
<rect width="20.4" height="20.4" transform="translate(15.5834 13.0834)" fill="white"/>
<path d="M35.641 22.3698L32.5492 19.278V15.7066C32.5492 15.0608 32.0259 14.5375 31.3792 14.5375C30.734 14.5375 30.2107 15.0608 30.2107 15.7066V16.9395L27.9086 14.6374C26.7705 13.4999 24.7916 13.5019 23.6561 14.6395L15.9256 22.3698C15.4693 22.827 15.4693 23.5669 15.9256 24.0234C16.3822 24.4806 17.1235 24.4806 17.5799 24.0234L25.3096 16.2929C25.5614 16.0424 26.0052 16.0424 26.2557 16.2922L33.9867 24.0234C34.216 24.252 34.5149 24.3657 34.8137 24.3657C35.1131 24.3657 35.4125 24.2519 35.641 24.0234C36.0975 23.5669 36.0975 22.8271 35.641 22.3698Z" fill="#323091"/>
<path d="M26.1894 18.5122C25.9648 18.2878 25.6012 18.2878 25.3772 18.5122L18.5775 25.3099C18.4702 25.4172 18.4093 25.5638 18.4093 25.7167V30.6746C18.4093 31.8381 19.3526 32.7814 20.516 32.7814H23.8826V27.5677H27.6834V32.7814H31.0499C32.2133 32.7814 33.1566 31.8381 33.1566 30.6747V25.7167C33.1566 25.5638 33.0963 25.4172 32.9884 25.3099L26.1894 18.5122Z" fill="#323091"/>
</g>
</g>
<defs>
<filter id="filter0_d_269_76" x="0.5" y="0" width="54" height="54" filterUnits="userSpaceOnUse" color-interpolation-filters="sRGB">
<feFlood flood-opacity="0" result="BackgroundImageFix"/>
<feColorMatrix in="SourceAlpha" type="matrix" values="0 0 0 0 0 0 0 0 0 0 0 0 0 0 0 0 0 0 127 0" result="hardAlpha"/>
<feOffset dx="2" dy="4"/>
<feGaussianBlur stdDeviation="5"/>
<feComposite in2="hardAlpha" operator="out"/>
<feColorMatrix type="matrix" values="0 0 0 0 0.11123 0 0 0 0 0.106204 0 0 0 0 0.355 0 0 0 0.2 0"/>
<feBlend mode="normal" in2="BackgroundImageFix" result="effect1_dropShadow_269_76"/>
<feBlend mode="normal" in="SourceGraphic" in2="effect1_dropShadow_269_76" result="shape"/>
</filter>
<clipPath id="clip0_269_76">
<rect width="20.4" height="20.4" fill="white" transform="translate(15.5834 13.0834)"/>
</clipPath>
</defs>
</svg>
